<svg width="225" height="28" viewBox="0 0 225 28" fill="none" xmlns="http://www.w3.org/2000/svg">
<path d="M1.9355 8.576V20H3.4555V14.768H9.4715V20H10.9915V8.576H9.4715V13.488H3.4555V8.576H1.9355ZM14.6984 10.24V8.576H13.3384V10.24H14.6984ZM13.3384 11.728V20H14.6984V11.728H13.3384ZM17.7973 15.936C17.7973 15.5307 17.8399 15.136 17.9253 14.752C18.0106 14.368 18.1493 14.0267 18.3413 13.728C18.5333 13.4293 18.7893 13.1893 19.1093 13.008C19.4293 12.8267 19.8186 12.736 20.2773 12.736C20.7466 12.736 21.1466 12.8267 21.4773 13.008C21.8079 13.1787 22.0746 13.408 22.2773 13.696C22.4906 13.984 22.6453 14.32 22.7413 14.704C22.8373 15.0773 22.8853 15.4667 22.8853 15.872C22.8853 16.256 22.8373 16.6347 22.7413 17.008C22.6559 17.3813 22.5119 17.7173 22.3093 18.016C22.1066 18.304 21.8453 18.5387 21.5253 18.72C21.2053 18.9013 20.8159 18.992 20.3573 18.992C19.9199 18.992 19.5359 18.9067 19.2053 18.736C18.8853 18.5653 18.6186 18.336 18.4053 18.048C18.2026 17.76 18.0479 17.4347 17.9413 17.072C17.8453 16.6987 17.7973 16.32 17.7973 15.936ZM24.1973 20V8.576H22.8373V12.832H22.8053C22.6559 12.5867 22.4693 12.384 22.2453 12.224C22.0319 12.0533 21.8026 11.92 21.5573 11.824C21.3119 11.7173 21.0666 11.6427 20.8213 11.6C20.5759 11.5573 20.3466 11.536 20.1333 11.536C19.5039 11.536 18.9493 11.6533 18.4693 11.888C17.9999 12.112 17.6053 12.4213 17.2853 12.816C16.9759 13.2 16.7413 13.6533 16.5813 14.176C16.4319 14.6987 16.3573 15.2533 16.3573 15.84C16.3573 16.4267 16.4373 16.9813 16.5973 17.504C16.7573 18.0267 16.9919 18.4853 17.3013 18.88C17.6213 19.2747 18.0159 19.5893 18.4853 19.824C18.9653 20.0587 19.5253 20.176 20.1653 20.176C20.7413 20.176 21.2693 20.0747 21.7493 19.872C22.2293 19.6693 22.5813 19.3387 22.8053 18.88H22.8373V20H24.1973ZM32.0336 15.072H27.2816C27.303 14.752 27.3723 14.4533 27.4896 14.176C27.607 13.888 27.767 13.6373 27.9696 13.424C28.1723 13.2107 28.4123 13.0453 28.6896 12.928C28.9776 12.8 29.2976 12.736 29.6496 12.736C29.991 12.736 30.3003 12.8 30.5776 12.928C30.8656 13.0453 31.111 13.2107 31.3136 13.424C31.527 13.6267 31.6923 13.872 31.8096 14.16C31.9376 14.448 32.0123 14.752 32.0336 15.072ZM33.3456 17.376H32.0016C31.8843 17.92 31.639 18.3253 31.2656 18.592C30.903 18.8587 30.4336 18.992 29.8576 18.992C29.4096 18.992 29.0203 18.9173 28.6896 18.768C28.359 18.6187 28.087 18.4213 27.8736 18.176C27.6603 17.92 27.5056 17.632 27.4096 17.312C27.3136 16.9813 27.271 16.6347 27.2816 16.272H33.4736C33.495 15.7707 33.447 15.2427 33.3296 14.688C33.223 14.1333 33.0203 13.6213 32.7216 13.152C32.4336 12.6827 32.0443 12.2987 31.5536 12C31.0736 11.6907 30.4656 11.536 29.7296 11.536C29.1643 11.536 28.6416 11.6427 28.1616 11.856C27.6923 12.0693 27.2816 12.368 26.9296 12.752C26.5883 13.136 26.3216 13.5893 26.1296 14.112C25.9376 14.6347 25.8416 15.2107 25.8416 15.84C25.863 16.4693 25.9536 17.0507 26.1136 17.584C26.2843 18.1173 26.535 18.576 26.8656 18.96C27.1963 19.344 27.6016 19.6427 28.0816 19.856C28.5723 20.0693 29.1483 20.176 29.8096 20.176C30.7483 20.176 31.527 19.9413 32.1456 19.472C32.7643 19.0027 33.1643 18.304 33.3456 17.376ZM39.5605 8.576V20H41.0805V14.768H46.3285V13.488H41.0805V9.856H47.0645V8.576H39.5605ZM49.964 10.24V8.576H48.604V10.24H49.964ZM48.604 11.728V20H49.964V11.728H48.604ZM52.1509 8.576V20H53.5109V8.576H52.1509ZM57.5058 11.728V9.248H56.1458V11.728H54.7378V12.928H56.1458V18.192C56.1458 18.576 56.1831 18.8853 56.2578 19.12C56.3324 19.3547 56.4444 19.536 56.5938 19.664C56.7538 19.792 56.9564 19.8827 57.2018 19.936C57.4578 19.9787 57.7618 20 58.1138 20H59.1538V18.8H58.5298C58.3164 18.8 58.1404 18.7947 58.0018 18.784C57.8738 18.7627 57.7724 18.7253 57.6978 18.672C57.6231 18.6187 57.5698 18.544 57.5378 18.448C57.5164 18.352 57.5058 18.224 57.5058 18.064V12.928H59.1538V11.728H57.5058ZM66.4086 15.072H61.6566C61.678 14.752 61.7473 14.4533 61.8646 14.176C61.982 13.888 62.142 13.6373 62.3446 13.424C62.5473 13.2107 62.7873 13.0453 63.0646 12.928C63.3526 12.8 63.6726 12.736 64.0246 12.736C64.366 12.736 64.6753 12.8 64.9526 12.928C65.2406 13.0453 65.486 13.2107 65.6886 13.424C65.902 13.6267 66.0673 13.872 66.1846 14.16C66.3126 14.448 66.3873 14.752 66.4086 15.072ZM67.7206 17.376H66.3766C66.2593 17.92 66.014 18.3253 65.6406 18.592C65.278 18.8587 64.8086 18.992 64.2326 18.992C63.7846 18.992 63.3953 18.9173 63.0646 18.768C62.734 18.6187 62.462 18.4213 62.2486 18.176C62.0353 17.92 61.8806 17.632 61.7846 17.312C61.6886 16.9813 61.646 16.6347 61.6566 16.272H67.8486C67.87 15.7707 67.822 15.2427 67.7046 14.688C67.598 14.1333 67.3953 13.6213 67.0966 13.152C66.8086 12.6827 66.4193 12.2987 65.9286 12C65.4486 11.6907 64.8406 11.536 64.1046 11.536C63.5393 11.536 63.0166 11.6427 62.5366 11.856C62.0673 12.0693 61.6566 12.368 61.3046 12.752C60.9633 13.136 60.6966 13.5893 60.5046 14.112C60.3126 14.6347 60.2166 15.2107 60.2166 15.84C60.238 16.4693 60.3286 17.0507 60.4886 17.584C60.6593 18.1173 60.91 18.576 61.2406 18.96C61.5713 19.344 61.9766 19.6427 62.4566 19.856C62.9473 20.0693 63.5233 20.176 64.1846 20.176C65.1233 20.176 65.902 19.9413 66.5206 19.472C67.1393 19.0027 67.5393 18.304 67.7206 17.376ZM69.2104 11.728V20H70.5704V16.32C70.5704 15.7867 70.6237 15.3173 70.7304 14.912C70.837 14.496 71.0077 14.144 71.2424 13.856C71.477 13.568 71.7864 13.3493 72.1704 13.2C72.5544 13.0507 73.0184 12.976 73.5624 12.976V11.536C72.8264 11.5147 72.2184 11.664 71.7384 11.984C71.2584 12.304 70.853 12.8 70.5224 13.472H70.4904V11.728H69.2104ZM75.4185 17.392H74.0585C74.0798 17.904 74.1865 18.3413 74.3785 18.704C74.5705 19.056 74.8265 19.344 75.1465 19.568C75.4665 19.7813 75.8345 19.936 76.2505 20.032C76.6665 20.128 77.1038 20.176 77.5625 20.176C77.9785 20.176 78.3945 20.1333 78.8105 20.048C79.2372 19.9733 79.6158 19.8347 79.9465 19.632C80.2878 19.4293 80.5598 19.1627 80.7625 18.832C80.9758 18.5013 81.0825 18.0853 81.0825 17.584C81.0825 17.1893 81.0025 16.8587 80.8425 16.592C80.6932 16.3253 80.4905 16.1067 80.2345 15.936C79.9892 15.7547 79.7012 15.6107 79.3705 15.504C79.0505 15.3973 78.7198 15.3067 78.3785 15.232C78.0585 15.1573 77.7385 15.088 77.4185 15.024C77.0985 14.9493 76.8105 14.864 76.5545 14.768C76.2985 14.6613 76.0852 14.5333 75.9145 14.384C75.7545 14.224 75.6745 14.0267 75.6745 13.792C75.6745 13.5787 75.7278 13.408 75.8345 13.28C75.9412 13.1413 76.0798 13.0347 76.2505 12.96C76.4212 12.8747 76.6078 12.816 76.8105 12.784C77.0238 12.752 77.2318 12.736 77.4345 12.736C77.6585 12.736 77.8772 12.7627 78.0905 12.816C78.3145 12.8587 78.5172 12.9333 78.6985 13.04C78.8798 13.1467 79.0292 13.2907 79.1465 13.472C79.2638 13.6427 79.3332 13.8613 79.3545 14.128H80.7145C80.6825 13.6267 80.5758 13.2107 80.3945 12.88C80.2132 12.5387 79.9678 12.272 79.6585 12.08C79.3598 11.8773 79.0132 11.7387 78.6185 11.664C78.2238 11.5787 77.7918 11.536 77.3225 11.536C76.9598 11.536 76.5918 11.584 76.2185 11.68C75.8558 11.7653 75.5252 11.904 75.2265 12.096C74.9385 12.2773 74.6985 12.5173 74.5065 12.816C74.3252 13.1147 74.2345 13.472 74.2345 13.888C74.2345 14.4213 74.3678 14.8373 74.6345 15.136C74.9012 15.4347 75.2318 15.6693 75.6265 15.84C76.0318 16 76.4692 16.128 76.9385 16.224C77.4078 16.3093 77.8398 16.4107 78.2345 16.528C78.6398 16.6347 78.9758 16.7787 79.2425 16.96C79.5092 17.1413 79.6425 17.408 79.6425 17.76C79.6425 18.016 79.5785 18.2293 79.4505 18.4C79.3225 18.56 79.1572 18.6827 78.9545 18.768C78.7625 18.8533 78.5492 18.912 78.3145 18.944C78.0798 18.976 77.8558 18.992 77.6425 18.992C77.3652 18.992 77.0932 18.9653 76.8265 18.912C76.5705 18.8587 76.3358 18.7733 76.1225 18.656C75.9198 18.528 75.7545 18.3627 75.6265 18.16C75.4985 17.9467 75.4292 17.6907 75.4185 17.392Z" fill="#111111"/>
<g clip-path="url(#clip0_1_1549)">
<path d="M110.531 11.25H99.5312M94.2812 11.25H92.5312" stroke="#111111" stroke-width="1.5"/>
<path d="M97.0312 9C96.7358 9 96.4432 9.0582 96.1702 9.17127C95.8972 9.28434 95.6492 9.45008 95.4403 9.65901C95.2313 9.86794 95.0656 10.116 94.9525 10.389C94.8394 10.6619 94.7812 10.9545 94.7812 11.25C94.7812 11.5455 94.8394 11.8381 94.9525 12.111C95.0656 12.384 95.2313 12.6321 95.4403 12.841C95.6492 13.0499 95.8972 13.2157 96.1702 13.3287C96.4432 13.4418 96.7358 13.5 97.0312 13.5C97.628 13.5 98.2003 13.2629 98.6222 12.841C99.0442 12.419 99.2812 11.8467 99.2812 11.25C99.2812 10.6533 99.0442 10.081 98.6222 9.65901C98.2003 9.23705 97.628 9 97.0312 9Z" stroke="#111111" stroke-width="1.5"/>
<path d="M92.5312 18.75H103.281M108.281 18.75H110.531" stroke="#111111" stroke-width="1.5"/>
<path d="M106.031 16.5C105.435 16.5 104.862 16.7371 104.44 17.159C104.018 17.581 103.781 18.1533 103.781 18.75C103.781 19.3467 104.018 19.919 104.44 20.341C104.862 20.7629 105.435 21 106.031 21C106.628 21 107.2 20.7629 107.622 20.341C108.044 19.919 108.281 19.3467 108.281 18.75C108.281 18.1533 108.044 17.581 107.622 17.159C107.2 16.7371 106.628 16.5 106.031 16.5Z" stroke="#111111" stroke-width="1.5"/>
</g>
<rect width="86.4688" height="28" transform="translate(138.531)" fill="white"/>
<rect width="86.4688" height="28" transform="translate(138.531)" fill="white"/>
<path d="M154.555 11.425H155.905C155.885 10.835 155.77 10.33 155.56 9.91C155.36 9.48 155.08 9.125 154.72 8.845C154.37 8.565 153.96 8.36 153.49 8.23C153.02 8.1 152.51 8.035 151.96 8.035C151.47 8.035 150.99 8.1 150.52 8.23C150.06 8.35 149.645 8.54 149.275 8.8C148.915 9.05 148.625 9.375 148.405 9.775C148.185 10.165 148.075 10.63 148.075 11.17C148.075 11.66 148.17 12.07 148.36 12.4C148.56 12.72 148.82 12.985 149.14 13.195C149.47 13.395 149.84 13.56 150.25 13.69C150.66 13.81 151.075 13.92 151.495 14.02C151.925 14.11 152.345 14.2 152.755 14.29C153.165 14.38 153.53 14.5 153.85 14.65C154.18 14.79 154.44 14.975 154.63 15.205C154.83 15.435 154.93 15.735 154.93 16.105C154.93 16.495 154.85 16.815 154.69 17.065C154.53 17.315 154.32 17.515 154.06 17.665C153.8 17.805 153.505 17.905 153.175 17.965C152.855 18.025 152.535 18.055 152.215 18.055C151.815 18.055 151.425 18.005 151.045 17.905C150.665 17.805 150.33 17.65 150.04 17.44C149.76 17.23 149.53 16.965 149.35 16.645C149.18 16.315 149.095 15.925 149.095 15.475H147.745C147.745 16.125 147.86 16.69 148.09 17.17C148.33 17.64 148.65 18.03 149.05 18.34C149.46 18.64 149.93 18.865 150.46 19.015C151 19.165 151.57 19.24 152.17 19.24C152.66 19.24 153.15 19.18 153.64 19.06C154.14 18.95 154.59 18.77 154.99 18.52C155.39 18.26 155.715 17.93 155.965 17.53C156.225 17.12 156.355 16.63 156.355 16.06C156.355 15.53 156.255 15.09 156.055 14.74C155.865 14.39 155.605 14.1 155.275 13.87C154.955 13.64 154.59 13.46 154.18 13.33C153.77 13.19 153.35 13.07 152.92 12.97C152.5 12.87 152.085 12.78 151.675 12.7C151.265 12.61 150.895 12.5 150.565 12.37C150.245 12.24 149.985 12.075 149.785 11.875C149.595 11.665 149.5 11.395 149.5 11.065C149.5 10.715 149.565 10.425 149.695 10.195C149.835 9.955 150.015 9.765 150.235 9.625C150.465 9.485 150.725 9.385 151.015 9.325C151.305 9.265 151.6 9.235 151.9 9.235C152.64 9.235 153.245 9.41 153.715 9.76C154.195 10.1 154.475 10.655 154.555 11.425ZM158.807 15.13C158.807 14.66 158.867 14.245 158.987 13.885C159.117 13.515 159.292 13.205 159.512 12.955C159.732 12.705 159.987 12.515 160.277 12.385C160.577 12.255 160.892 12.19 161.222 12.19C161.552 12.19 161.862 12.255 162.152 12.385C162.452 12.515 162.712 12.705 162.932 12.955C163.152 13.205 163.322 13.515 163.442 13.885C163.572 14.245 163.637 14.66 163.637 15.13C163.637 15.6 163.572 16.02 163.442 16.39C163.322 16.75 163.152 17.055 162.932 17.305C162.712 17.545 162.452 17.73 162.152 17.86C161.862 17.99 161.552 18.055 161.222 18.055C160.892 18.055 160.577 17.99 160.277 17.86C159.987 17.73 159.732 17.545 159.512 17.305C159.292 17.055 159.117 16.75 158.987 16.39C158.867 16.02 158.807 15.6 158.807 15.13ZM157.457 15.13C157.457 15.7 157.537 16.23 157.697 16.72C157.857 17.21 158.097 17.64 158.417 18.01C158.737 18.37 159.132 18.655 159.602 18.865C160.072 19.065 160.612 19.165 161.222 19.165C161.842 19.165 162.382 19.065 162.842 18.865C163.312 18.655 163.707 18.37 164.027 18.01C164.347 17.64 164.587 17.21 164.747 16.72C164.907 16.23 164.987 15.7 164.987 15.13C164.987 14.56 164.907 14.03 164.747 13.54C164.587 13.04 164.347 12.61 164.027 12.25C163.707 11.88 163.312 11.59 162.842 11.38C162.382 11.17 161.842 11.065 161.222 11.065C160.612 11.065 160.072 11.17 159.602 11.38C159.132 11.59 158.737 11.88 158.417 12.25C158.097 12.61 157.857 13.04 157.697 13.54C157.537 14.03 157.457 14.56 157.457 15.13ZM166.445 11.245V19H167.72V15.55C167.72 15.05 167.77 14.61 167.87 14.23C167.97 13.84 168.13 13.51 168.35 13.24C168.57 12.97 168.86 12.765 169.22 12.625C169.58 12.485 170.015 12.415 170.525 12.415V11.065C169.835 11.045 169.265 11.185 168.815 11.485C168.365 11.785 167.985 12.25 167.675 12.88H167.645V11.245H166.445ZM173.255 11.245V8.92H171.98V11.245H170.66V12.37H171.98V17.305C171.98 17.665 172.015 17.955 172.085 18.175C172.155 18.395 172.26 18.565 172.4 18.685C172.55 18.805 172.74 18.89 172.97 18.94C173.21 18.98 173.495 19 173.825 19H174.8V17.875H174.215C174.015 17.875 173.85 17.87 173.72 17.86C173.6 17.84 173.505 17.805 173.435 17.755C173.365 17.705 173.315 17.635 173.285 17.545C173.265 17.455 173.255 17.335 173.255 17.185V12.37H174.8V11.245H173.255ZM182.026 12.895V9.49H184.876C185.186 9.49 185.476 9.51 185.746 9.55C186.026 9.58 186.271 9.655 186.481 9.775C186.691 9.895 186.856 10.065 186.976 10.285C187.096 10.505 187.156 10.805 187.156 11.185C187.156 11.755 186.976 12.185 186.616 12.475C186.266 12.755 185.686 12.895 184.876 12.895H182.026ZM180.601 8.29V19H185.776C186.306 19 186.771 18.915 187.171 18.745C187.581 18.565 187.921 18.335 188.191 18.055C188.471 17.765 188.681 17.435 188.821 17.065C188.961 16.695 189.031 16.315 189.031 15.925C189.031 15.265 188.856 14.705 188.506 14.245C188.156 13.785 187.651 13.485 186.991 13.345V13.315C187.501 13.115 187.891 12.81 188.161 12.4C188.441 11.98 188.581 11.485 188.581 10.915C188.581 10.375 188.456 9.92 188.206 9.55C187.966 9.18 187.671 8.89 187.321 8.68C187.161 8.58 186.966 8.505 186.736 8.455C186.516 8.405 186.276 8.37 186.016 8.35C185.756 8.32 185.491 8.305 185.221 8.305C184.961 8.295 184.716 8.29 184.486 8.29H180.601ZM182.026 17.8V14.095H185.281C185.581 14.095 185.871 14.125 186.151 14.185C186.431 14.235 186.676 14.33 186.886 14.47C187.106 14.6 187.281 14.78 187.411 15.01C187.541 15.24 187.606 15.53 187.606 15.88C187.606 16.48 187.426 16.95 187.066 17.29C186.716 17.63 186.226 17.8 185.596 17.8H182.026ZM193.705 20.035C193.555 20.415 193.405 20.735 193.255 20.995C193.115 21.255 192.955 21.465 192.775 21.625C192.605 21.795 192.41 21.915 192.19 21.985C191.98 22.065 191.735 22.105 191.455 22.105C191.305 22.105 191.155 22.095 191.005 22.075C190.855 22.055 190.71 22.02 190.57 21.97V20.8C190.68 20.85 190.805 20.89 190.945 20.92C191.095 20.96 191.22 20.98 191.32 20.98C191.58 20.98 191.795 20.915 191.965 20.785C192.145 20.665 192.28 20.49 192.37 20.26L192.895 18.955L189.82 11.245H191.26L193.525 17.59H193.555L195.73 11.245H197.08L193.705 20.035Z" fill="#111111"/>
<path d="M206.374 11.763C206.772 11.3794 207.405 11.3904 207.788 11.7877L213.346 17.5424L211.907 18.9318L206.35 13.177C205.966 12.7798 205.977 12.1467 206.374 11.763Z" fill="black"/>
<path d="M210.654 17.542L216.212 11.7873C216.595 11.39 217.228 11.3789 217.626 11.7626C218.023 12.1462 218.034 12.7793 217.65 13.1766L212.093 18.9313L210.654 17.542Z" fill="black"/>
<defs>
<clipPath id="clip0_1_1549">
<rect width="24" height="24" fill="white" transform="translate(89.5312 3)"/>
</clipPath>
</defs>
</svg>
